# xmcd
#
# Track frame offsets:
#	150
#	21322
#	43434
#	60049
#	72868
#	96992
#	115397
#	134599
#	168174
#	188902
#	214862
#	244244
#	259022
#	277952
#	294798
#
# Disc length: 4446 seconds
#
# Revision: 1
# Processed by: cddbd v1.5.2PL0 Copyright (c) Steve Scherf et al.
# Submitted via: audiograbber 1.83.01
#
DISCID=df115c0f
DTITLE=Chor und Orchester der Metropolitan Opera New York - Vincenzo Bellini-No
DTITLE=rma
DYEAR=1937
DGENRE=Opera
TTITLE0=Ouvertüre
TTITLE1=Ite sul collem, o Druidi
TTITLE2=Dell'aura tua profetica
TTITLE3=Svanir le vocil
TTITLE4=Meco all'altar di Venere
TTITLE5=Norma viene
TTITLE6=Sediziose voci
TTITLE7=Casta Diva
TTITLE8=Fine al rito, e il sacro
TTITLE9=Sgombra e la sacra selva
TTITLE10=Eccola
TTITLE11=Viene in Roma, ah!
TTITLE12=Vanne, e li cela entrambi
TTITLE13=Adalgia!
TTITLE14=Oh! Rimembranza lo fui
EXTD=
EXTT0=
EXTT1=
EXTT2=
EXTT3=
EXTT4=
EXTT5=
EXTT6=
EXTT7=
EXTT8=
EXTT9=
EXTT10=
EXTT11=
EXTT12=
EXTT13=
EXTT14=
PLAYORDER=
